<svg xmlns="http://www.w3.org/2000/svg" width="700" height="700" viewBox="0 0 700 700" role="img" aria-label="Hero fashion illustration">
  <defs>
    <linearGradient id="dress" x1="0" y1="0" x2="1" y2="1">
      <stop offset="0%" stop-color="#e75480"/>
      <stop offset="100%" stop-color="#ff9fc3"/>
    </linearGradient>
    <linearGradient id="card" x1="0" y1="0" x2="1" y2="1">
      <stop offset="0%" stop-color="#ffffff"/>
      <stop offset="100%" stop-color="#fff5f7"/>
    </linearGradient>
    <filter id="shadow" x="-30%" y="-30%" width="160%" height="160%">
      <feDropShadow dx="0" dy="24" stdDeviation="24" flood-color="#e75480" flood-opacity="0.2"/>
    </filter>
  </defs>
  <rect x="80" y="80" width="540" height="540" rx="70" fill="url(#card)"/>
  <circle cx="180" cy="170" r="70" fill="#f8c8dc" opacity="0.8"/>
  <circle cx="530" cy="180" r="92" fill="#f8c8dc" opacity="0.45"/>
  <circle cx="540" cy="520" r="64" fill="#e75480" opacity="0.12"/>
  <g filter="url(#shadow)">
    <circle cx="350" cy="148" r="46" fill="#ffdbe8"/>
    <path d="M315 206 C328 230 372 230 385 206 L415 242 C392 272 308 272 285 242Z" fill="#ffffff"/>
    <path d="M350 215 C302 285 275 390 235 535 L465 535 C425 390 398 285 350 215Z" fill="url(#dress)"/>
    <path d="M286 244 C250 270 220 310 200 360" fill="none" stroke="#e75480" stroke-width="24" stroke-linecap="round" opacity="0.55"/>
    <path d="M414 244 C450 270 480 310 500 360" fill="none" stroke="#e75480" stroke-width="24" stroke-linecap="round" opacity="0.55"/>
    <path d="M300 345 C330 365 370 365 400 345" fill="none" stroke="#ffffff" stroke-width="10" stroke-linecap="round" opacity="0.65"/>
  </g>
  <g opacity="0.8">
    <circle cx="142" cy="450" r="14" fill="#e75480"/>
    <circle cx="560" cy="360" r="10" fill="#e75480"/>
    <circle cx="242" cy="104" r="9" fill="#e75480"/>
    <path d="M120 335 C155 315 182 315 220 335" fill="none" stroke="#f8c8dc" stroke-width="12" stroke-linecap="round"/>
    <path d="M488 455 C520 430 548 430 580 455" fill="none" stroke="#f8c8dc" stroke-width="12" stroke-linecap="round"/>
  </g>
</svg>